<?xml version="1.0" encoding="utf-8"?>
<!-- Generator: Adobe Illustrator 17.0.0, SVG Export Plug-In . SVG Version: 6.00 Build 0)  -->
<!DOCTYPE svg PUBLIC "-//W3C//DTD SVG 1.1//EN" "http://www.w3.org/Graphics/SVG/1.1/DTD/svg11.dtd">
<svg version="1.1" id="Ńëîé_1" xmlns="http://www.w3.org/2000/svg" xmlns:xlink="http://www.w3.org/1999/xlink" x="0px" y="0px"
	 width="409.508px" height="128.757px" viewBox="0 0 409.508 128.757" enable-background="new 0 0 409.508 128.757"
	 xml:space="preserve">
<g>
	<path fill="#FFFFFF" stroke="#FFFFFF" stroke-miterlimit="10" d="M77.454,39.707v36.717h6.298c3.35,0,6.432-2.01,9.112-5.896
		c2.68-3.886,4.02-9.247,4.02-16.081c0-21.172-15.812-27.604-33.367-27.604c-15.276,0-28.274,4.556-38.995,13.668
		c-10.72,8.978-16.08,20.636-16.08,34.707c0,9.514,2.546,17.822,7.772,25.059c5.226,7.236,12.596,10.854,21.842,10.854
		c6.566,0,11.123-3.082,11.123-8.576c0-2.546-1.072-4.422-3.083-5.36c1.34-1.608,3.216-2.412,5.762-2.412
		c3.618,0,6.432,2.144,6.432,6.298c0,4.154-2.144,7.236-6.298,9.514c-4.154,2.144-8.844,3.216-14.07,3.216
		c-10.587,0-19.565-3.618-26.935-10.988C3.618,95.452,0,86.34,0,75.62c0-10.05,3.082-19.162,9.246-27.203
		c6.298-8.04,14.205-14.07,23.852-18.224c9.649-4.154,19.966-6.298,30.821-6.298c8.04,0,15.41,0.938,21.976,2.948
		c13.4,3.886,23.719,13.534,23.719,27.068c0,5.494-1.742,10.586-5.36,15.008c-3.484,4.422-7.638,7.236-12.596,8.442
		c12.329,3.216,21.307,11.926,21.307,25.327c0,7.102-2.546,13.132-7.772,17.822c-5.092,4.69-12.328,7.102-21.574,7.102H58.827
		v-2.278h1.34c4.824-0.671,4.958-3.484,4.824-7.103V59.137c0-4.69-1.608-6.968-4.824-6.968v-2.144
		c7.638-0.402,14.338-3.484,14.741-10.318H77.454z M84.689,124.933c10.586,0,15.009-9.514,15.009-21.842
		c0-5.762-1.34-11.122-4.021-16.08c-2.68-4.958-6.834-7.504-12.328-7.504h-5.896v41.675c0,2.546,1.072,3.752,3.216,3.752H84.689z"/>
	<path fill="#FFFFFF" stroke="#FFFFFF" stroke-miterlimit="10" d="M148.885,65.522c0-4.472-1.456-6.656-4.472-6.656h-0.936v-1.664
		h14.352v1.664h-0.832c-3.016,0-4.576,2.184-4.576,6.656v49.09c0,8.216-5.72,14.145-14.561,14.145c-4.888,0-8.84-0.832-13-3.224
		c-4.056-2.496-6.656-7.592-6.656-14.769V64.066c0-2.184-0.104-5.2-4.368-5.2h-0.728v-1.664h19.033v1.664h-0.624
		c-2.392,0-3.64,1.768-3.64,5.2v48.882c0,8.424,3.64,12.585,10.92,12.585c6.136,0,10.088-4.264,10.088-11.648V65.522z"/>
	<path fill="#FFFFFF" stroke="#FFFFFF" stroke-miterlimit="10" d="M189.34,90.587l8.736,29.433c1.248,4.16,2.912,5.824,5.928,5.824
		v1.768h-11.232c-1.664,0-2.704-0.728-3.224-2.288l-7.696-28.705c-0.52-1.872-1.664-2.808-3.432-2.808l-4.264-0.104v26.625
		c0,3.64,1.352,5.512,3.952,5.512h1.248v1.768h-19.969v-1.768h0.936c3.952-0.312,4.264-2.808,4.16-5.512v-56.37
		c0.104-2.496-0.208-4.68-4.16-5.096h-0.936v-1.664h20.697c10.088,0,17.577,6.344,17.577,17.161
		C197.661,80.915,194.228,87.363,189.34,90.587z M174.156,59.386v31.825c1.768,0.104,3.016,0.104,3.536,0.104
		c3.744,0,6.344-1.664,7.904-4.992c1.56-3.328,2.288-7.176,2.288-11.544c0-10.296-3.536-15.393-10.504-15.393H174.156z"/>
	<path fill="#FFFFFF" stroke="#FFFFFF" stroke-miterlimit="10" d="M200.987,57.202h19.657c10.712,0,17.784,4.992,17.784,15.497
		c0,4.056-1.352,7.8-3.951,11.232c-2.601,3.432-5.824,5.616-9.777,6.344c4.681,0.936,8.529,3.224,11.441,6.864
		c2.912,3.64,4.367,7.696,4.367,12.168c0,5.096-1.768,9.36-5.199,13.001c-3.433,3.536-7.697,5.304-12.793,5.304h-21.633v-1.768h1.04
		c1.768,0,2.912-0.416,3.328-1.664c0.52-1.248,0.52-1.768,0.52-3.848v-56.37c0.104-2.496,0-4.68-3.952-5.096h-0.832V57.202z
		 M224.804,61.466c-2.496-1.768-4.16-2.184-6.761-2.184h-2.6v30.057h4.16c2.393,0,4.576-1.456,6.344-4.368
		c1.769-3.016,2.705-6.656,2.705-11.024C228.652,67.395,227.3,63.13,224.804,61.466z M215.443,91.731v30.889
		c0,1.872,0.832,2.808,2.496,2.808h2.809c6.24,0,9.464-6.136,9.464-15.809c0-7.384-1.872-12.793-4.472-14.977
		c-2.496-2.184-4.576-2.912-6.345-2.912H215.443z"/>
	<path fill="#FFFFFF" stroke="#FFFFFF" stroke-miterlimit="10" d="M255.586,59.49v30.577h3.016c3.849,0,6.969-2.496,6.969-6.656
		v-2.288h2.08v21.737h-2.08v-3.328c0-4.264-3.12-7.176-6.969-7.176h-3.016v30.057c0,1.976,0.832,2.912,2.496,2.912h4.68
		c2.809,0,4.473-0.52,6.553-2.288c2.184-1.976,3.744-6.448,4.473-13.208h1.871v17.785h-34.945v-1.768h1.352
		c2.601,0,3.849-1.872,3.849-5.512v-56.37c0.104-2.496-0.105-4.68-4.057-5.096h-1.145v-1.664h33.697v15.809h-1.871
		c-0.832-8.424-3.641-13.52-11.129-13.52H255.586z"/>
	<path fill="#FFFFFF" stroke="#FFFFFF" stroke-miterlimit="10" d="M293.129,122.413c0,1.976,0.832,2.912,2.496,2.912h4.369
		c2.808,0,4.472-0.52,6.552-2.288c2.185-1.976,3.744-6.448,4.472-13.208h1.873v17.785h-34.634v-1.768h1.353
		c2.6,0,3.848-1.872,3.848-5.512v-56.37c0.103-2.496-0.104-4.68-4.473-5.096h-0.623v-1.664h19.448v1.664h-0.937
		c-3.744,0.416-3.848,2.6-3.744,5.096V122.413z"/>
	<path fill="#FFFFFF" stroke="#FFFFFF" stroke-miterlimit="10" d="M254.75,42.538c-4.368-4.056-6.553-9.256-6.553-15.601
		c0-8.216,3.017-14.665,9.152-19.553C263.383,2.496,270.662,0,279.087,0c10.505,0,20.385,2.6,31.097,8.528
		c5.305,3.016,9.568,5.616,12.793,7.8s7.696,5.304,13.416,9.568l2.393,1.768c5.305-5.512,11.856-9.776,19.553-13.001
		c7.696-3.224,15.809-4.784,24.232-4.784c16.641,0,26.938,7.28,26.938,19.761c0,4.576-1.456,8.528-4.473,11.961
		c-5.824,6.656-14.664,9.36-24.129,9.36c-13.208,0-27.457-5.096-42.953-15.185c-5.616,9.568-8.424,23.401-8.424,41.394v45.242
		c0,1.976,0.832,2.912,2.496,2.912h4.367c2.809,0,4.473-0.52,6.553-2.288c2.184-1.976,3.744-6.448,4.473-13.208h1.871v17.785
		h-34.633v-1.768h1.352c2.601,0,3.849-1.872,3.849-5.512V86.843c0-16.745,1.56-29.225,4.784-37.337
		c2.496-6.24,5.616-11.753,9.256-16.433c-2.808-1.872-6.656-4.576-11.648-8.216c-4.888-3.64-8.943-6.552-11.96-8.632
		c-3.12-2.08-6.656-4.264-10.712-6.656C291.359,4.68,283.975,2.6,276.799,2.6c-7.592,0-13.937,2.184-19.033,6.656
		c-5.096,4.368-7.695,10.4-7.695,17.993c0,6.344,2.08,11.44,6.24,15.081c4.16,3.64,8.736,5.408,13.729,5.408
		c4.056,0,7.695-1.248,10.712-3.64c3.017-2.496,4.472-5.72,4.472-9.568c0-4.16-2.703-6.864-6.344-6.864
		c-2.809,0-4.16,1.768-4.16,3.952c0,1.144,0.208,1.976,0.624,2.288c-2.704-0.52-4.056-1.976-4.056-4.576
		c0-3.224,2.808-6.136,7.279-6.136c5.408,0,8.841,4.576,8.841,10.4c0,4.16-1.664,7.696-4.888,10.712
		c-3.328,2.912-7.385,4.368-12.273,4.368C264.215,48.674,259.014,46.594,254.75,42.538z M342.01,29.953
		c16.12,11.753,27.977,18.201,41.185,18.201c7.592,0,13.624-1.664,18.096-5.096c4.473-3.432,6.761-7.904,6.761-13.208
		c0-11.96-9.776-18.617-25.482-18.617C366.658,11.232,351.266,18.201,342.01,29.953z"/>
</g>
</svg>
