<?xml version="1.0" encoding="utf-8"?>
<!-- Generator: Adobe Illustrator 17.0.0, SVG Export Plug-In . SVG Version: 6.00 Build 0)  -->
<!DOCTYPE svg PUBLIC "-//W3C//DTD SVG 1.1//EN" "http://www.w3.org/Graphics/SVG/1.1/DTD/svg11.dtd">
<svg version="1.1" id="Ńëîé_1" xmlns="http://www.w3.org/2000/svg" xmlns:xlink="http://www.w3.org/1999/xlink" x="0px" y="0px"
	 width="409.508px" height="128.565px" viewBox="0 0 409.508 128.565" enable-background="new 0 0 409.508 128.565"
	 xml:space="preserve">
<path d="M77.454,39.648V76.31h6.298c3.35,0,6.432-2.007,9.112-5.887c2.68-3.88,4.02-9.233,4.02-16.057
	c0-21.141-15.812-27.563-33.367-27.563c-15.276,0-28.274,4.549-38.995,13.648c-10.72,8.965-16.08,20.606-16.08,34.655
	c0,9.5,2.546,17.796,7.772,25.021c5.226,7.225,12.596,10.838,21.842,10.838c6.566,0,11.123-3.078,11.123-8.563
	c0-2.542-1.072-4.415-3.083-5.352c1.34-1.606,3.216-2.409,5.762-2.409c3.618,0,6.432,2.141,6.432,6.289
	c0,4.148-2.144,7.226-6.298,9.5c-4.154,2.141-8.844,3.212-14.07,3.212c-10.587,0-19.565-3.613-26.935-10.972
	C3.618,95.31,0,86.211,0,75.507c0-10.035,3.082-19.134,9.246-27.162c6.298-8.028,14.205-14.049,23.852-18.197
	c9.649-4.148,19.966-6.289,30.821-6.289c8.04,0,15.41,0.937,21.976,2.944c13.4,3.88,23.719,13.514,23.719,27.028
	c0,5.486-1.742,10.571-5.36,14.986c-3.484,4.416-7.638,7.226-12.596,8.43c12.329,3.211,21.307,11.909,21.307,25.289
	c0,7.091-2.546,13.113-7.772,17.796c-5.092,4.683-12.328,7.092-21.574,7.092H58.827v-2.274h1.34c4.824-0.67,4.958-3.479,4.824-7.092
	V59.049c0-4.683-1.608-6.957-4.824-6.957v-2.141c7.638-0.402,14.338-3.479,14.741-10.303H77.454z M84.689,124.746
	c10.586,0,15.009-9.5,15.009-21.81c0-5.754-1.34-11.105-4.021-16.057c-2.68-4.951-6.834-7.493-12.328-7.493h-5.896V121
	c0,2.542,1.072,3.746,3.216,3.746H84.689z"/>
<path d="M148.885,65.425c0-4.466-1.456-6.646-4.472-6.646h-0.936v-1.662h14.352v1.662h-0.832c-3.016,0-4.576,2.181-4.576,6.646
	v49.017c0,8.204-5.72,14.123-14.561,14.123c-4.888,0-8.84-0.831-13-3.219c-4.056-2.492-6.656-7.581-6.656-14.746V63.971
	c0-2.181-0.104-5.192-4.368-5.192h-0.728v-1.662h19.033v1.662h-0.624c-2.392,0-3.64,1.765-3.64,5.192v48.809
	c0,8.412,3.64,12.566,10.92,12.566c6.136,0,10.088-4.258,10.088-11.631V65.425z"/>
<path d="M189.34,90.452l8.736,29.389c1.248,4.154,2.912,5.816,5.928,5.816v1.765h-11.232c-1.664,0-2.704-0.727-3.224-2.285
	l-7.696-28.662c-0.52-1.869-1.664-2.804-3.432-2.804l-4.264-0.104v26.585c0,3.635,1.352,5.504,3.952,5.504h1.248v1.765h-19.969
	v-1.765h0.936c3.952-0.312,4.264-2.804,4.16-5.504V63.867c0.104-2.492-0.208-4.673-4.16-5.089h-0.936v-1.662h20.697
	c10.088,0,17.577,6.335,17.577,17.135C197.661,80.794,194.228,87.233,189.34,90.452z M174.156,59.298v31.778
	c1.768,0.104,3.016,0.104,3.536,0.104c3.744,0,6.344-1.662,7.904-4.985c1.56-3.323,2.288-7.166,2.288-11.527
	c0-10.281-3.536-15.37-10.504-15.37H174.156z"/>
<path d="M200.987,57.117h19.657c10.712,0,17.784,4.985,17.784,15.474c0,4.05-1.352,7.789-3.951,11.216
	c-2.601,3.427-5.824,5.608-9.777,6.335c4.681,0.935,8.529,3.219,11.441,6.854c2.912,3.635,4.367,7.685,4.367,12.15
	c0,5.089-1.768,9.346-5.199,12.981c-3.433,3.531-7.697,5.296-12.793,5.296h-21.633v-1.765h1.04c1.768,0,2.912-0.415,3.328-1.662
	c0.52-1.246,0.52-1.765,0.52-3.842V63.867c0.104-2.492,0-4.673-3.952-5.089h-0.832V57.117z M224.804,61.375
	c-2.496-1.765-4.16-2.181-6.761-2.181h-2.6v30.012h4.16c2.393,0,4.576-1.454,6.344-4.362c1.769-3.012,2.705-6.646,2.705-11.008
	C228.652,67.294,227.3,63.036,224.804,61.375z M215.443,91.595v30.843c0,1.869,0.832,2.804,2.496,2.804h2.809
	c6.24,0,9.464-6.127,9.464-15.785c0-7.373-1.872-12.773-4.472-14.954c-2.496-2.181-4.576-2.908-6.345-2.908H215.443z"/>
<path d="M255.586,59.402v30.532h3.016c3.849,0,6.969-2.492,6.969-6.646v-2.285h2.08v21.705h-2.08v-3.323
	c0-4.258-3.12-7.166-6.969-7.166h-3.016v30.012c0,1.973,0.832,2.908,2.496,2.908h4.68c2.809,0,4.473-0.519,6.553-2.285
	c2.184-1.973,3.744-6.439,4.473-13.189h1.871v17.758h-34.945v-1.765h1.352c2.601,0,3.849-1.869,3.849-5.504V63.867
	c0.104-2.492-0.105-4.673-4.057-5.089h-1.145v-1.662h33.697v15.785h-1.871c-0.832-8.412-3.641-13.5-11.129-13.5H255.586z"/>
<path d="M293.129,122.23c0,1.973,0.832,2.908,2.496,2.908h4.369c2.808,0,4.472-0.519,6.552-2.285
	c2.185-1.973,3.744-6.439,4.472-13.189h1.873v17.758h-34.634v-1.765h1.353c2.6,0,3.848-1.869,3.848-5.504V63.867
	c0.103-2.492-0.104-4.673-4.473-5.089h-0.623v-1.662h19.448v1.662h-0.937c-3.744,0.415-3.848,2.596-3.744,5.089V122.23z"/>
<path d="M254.75,42.474c-4.368-4.05-6.553-9.243-6.553-15.577c0-8.204,3.017-14.643,9.152-19.524C263.383,2.492,270.662,0,279.087,0
	c10.505,0,20.385,2.596,31.097,8.516c5.305,3.012,9.568,5.608,12.793,7.789s7.696,5.296,13.416,9.554l2.393,1.765
	c5.305-5.504,11.856-9.762,19.553-12.981c7.696-3.219,15.809-4.777,24.232-4.777c16.641,0,26.938,7.269,26.938,19.731
	c0,4.569-1.456,8.516-4.473,11.943c-5.824,6.646-14.664,9.346-24.129,9.346c-13.208,0-27.457-5.089-42.953-15.162
	c-5.616,9.554-8.424,23.366-8.424,41.332v45.174c0,1.973,0.832,2.908,2.496,2.908h4.367c2.809,0,4.473-0.519,6.553-2.285
	c2.184-1.973,3.744-6.439,4.473-13.189h1.871v17.758h-34.633v-1.765h1.352c2.601,0,3.849-1.869,3.849-5.504V86.714
	c0-16.72,1.56-29.182,4.784-37.282c2.496-6.231,5.616-11.735,9.256-16.408c-2.808-1.869-6.656-4.569-11.648-8.204
	c-4.888-3.635-8.943-6.542-11.96-8.619c-3.12-2.077-6.656-4.258-10.712-6.646c-8.217-4.881-15.602-6.958-22.777-6.958
	c-7.592,0-13.937,2.181-19.033,6.646c-5.096,4.362-7.695,10.385-7.695,17.966c0,6.335,2.08,11.423,6.24,15.058
	c4.16,3.635,8.736,5.4,13.729,5.4c4.056,0,7.695-1.246,10.712-3.635c3.017-2.492,4.472-5.712,4.472-9.554
	c0-4.154-2.703-6.854-6.344-6.854c-2.809,0-4.16,1.765-4.16,3.946c0,1.142,0.208,1.973,0.624,2.285
	c-2.704-0.519-4.056-1.973-4.056-4.569c0-3.219,2.808-6.127,7.279-6.127c5.408,0,8.841,4.569,8.841,10.385
	c0,4.154-1.664,7.685-4.888,10.696c-3.328,2.908-7.385,4.362-12.273,4.362C264.215,48.601,259.014,46.524,254.75,42.474z
	 M342.01,29.908c16.12,11.735,27.977,18.174,41.185,18.174c7.592,0,13.624-1.662,18.096-5.089c4.473-3.427,6.761-7.893,6.761-13.189
	c0-11.943-9.776-18.589-25.482-18.589C366.658,11.216,351.266,18.174,342.01,29.908z"/>
</svg>
